<svg xmlns="http://www.w3.org/2000/svg" width="21.167" height="22.125" viewBox="0 0 21.167 22.125">
  <path id="home" d="M6.716,18.771V15.7a1.432,1.432,0,0,1,1.436-1.419h2.911A1.433,1.433,0,0,1,12.509,15.7h0v3.076A1.23,1.23,0,0,0,13.722,20h1.941a3.471,3.471,0,0,0,3.5-3.438h0V7.838a2.432,2.432,0,0,0-.97-1.9L11.558.685a3.23,3.23,0,0,0-3.979,0L.97,5.943A2.414,2.414,0,0,0,0,7.847v8.714A3.471,3.471,0,0,0,3.5,20H5.444A1.24,1.24,0,0,0,6.7,18.771h0" transform="translate(1 1.125)" fill="none" stroke="#3b235d" stroke-linecap="round" stroke-linejoin="round" stroke-width="2" fill-rule="evenodd"/>
</svg>
