<svg xmlns="http://www.w3.org/2000/svg" width="25.22" height="25.2" viewBox="0 0 25.22 25.2">
  <path id="notification" d="M23.989,18.446c-.058-.889-.737-1.215-1.392-1.532-.116-.056-.236-.114-.358-.188a3.843,3.843,0,0,1-2-3.221V8.159a8.254,8.254,0,0,0-16.506,0V13.5a3.845,3.845,0,0,1-2,3.23c-.109.056-.218.109-.326.161C.768,17.2.042,17.553-.02,18.446a1.861,1.861,0,0,0,.5,1.407,1.887,1.887,0,0,0,1.373.593H8.065a3.939,3.939,0,0,0,7.84,0h6.209a1.887,1.887,0,0,0,1.369-.593A1.861,1.861,0,0,0,23.989,18.446Zm-12,4.813A3.189,3.189,0,0,1,8.82,20.445h6.329A3.189,3.189,0,0,1,11.985,23.259Zm10.95-3.92a1.11,1.11,0,0,1-.822.356H1.856a1.125,1.125,0,0,1-1.125-1.2c.028-.433.375-.625,1-.923.114-.054.231-.111.345-.169a4.577,4.577,0,0,0,2.4-3.9V8.159a7.5,7.5,0,0,1,15.006,0V13.5a4.577,4.577,0,0,0,2.4,3.9c.128.066.255.128.375.188.634.306.938.473.97.906a1.125,1.125,0,0,1-.3.842Z" transform="translate(0.625 0.6)" fill="#3b235d" stroke="#3b235d" stroke-width="1.2"/>
</svg>
